<?xml version="1.0" encoding="UTF-8" standalone="no"?>
<svg
   xmlns:dc="http://purl.org/dc/elements/1.1/"
   xmlns:cc="http://creativecommons.org/ns#"
   xmlns:rdf="http://www.w3.org/1999/02/22-rdf-syntax-ns#"
   xmlns:svg="http://www.w3.org/2000/svg"
   xmlns="http://www.w3.org/2000/svg"
   xmlns:sodipodi="http://sodipodi.sourceforge.net/DTD/sodipodi-0.dtd"
   xmlns:inkscape="http://www.inkscape.org/namespaces/inkscape"
   inkscape:export-ydpi="96"
   inkscape:export-xdpi="96"
   inkscape:export-filename="/data/projects/josm/center-point/center-point/icon.png"
   inkscape:version="1.0 (4035a4fb49, 2020-05-01)"
   sodipodi:docname="icon.svg"
   viewBox="0, 0, 400,400"
   height="400"
   width="400"
   version="1.1"
   id="svg">
  <metadata
     id="metadata11">
    <rdf:RDF>
      <cc:Work
         rdf:about="">
        <dc:format>image/svg+xml</dc:format>
        <dc:type
           rdf:resource="http://purl.org/dc/dcmitype/StillImage" />
        <dc:title></dc:title>
      </cc:Work>
    </rdf:RDF>
  </metadata>
  <defs
     id="defs9" />
  <sodipodi:namedview
     inkscape:current-layer="svgg"
     inkscape:window-maximized="1"
     inkscape:window-y="0"
     inkscape:window-x="44"
     inkscape:cy="198.74035"
     inkscape:cx="43.715167"
     inkscape:zoom="1.5644738"
     showgrid="false"
     id="namedview7"
     inkscape:window-height="1051"
     inkscape:window-width="1876"
     inkscape:pageshadow="2"
     inkscape:pageopacity="0"
     guidetolerance="10"
     gridtolerance="10"
     objecttolerance="10"
     borderopacity="1"
     bordercolor="#666666"
     pagecolor="#ffffff" />
  <g
     id="svgg">
    <path
       fill-rule="evenodd"
       fill="#fcfcfc"
       stroke="none"
       d="M329.030 34.040 C 323.423 34.631,319.676 37.280,318.113 41.756 C 317.001 44.944,317.036 73.257,318.157 76.161 C 320.793 82.998,324.375 84.182,342.400 84.175 C 366.279 84.166,367.000 83.416,367.000 58.600 L 367.000 43.400 365.964 41.200 C 363.727 36.449,360.931 34.660,354.723 34.006 C 350.315 33.542,333.550 33.564,329.030 34.040 M44.400 100.809 C 35.777 102.316,34.017 105.840,33.717 122.200 C 33.210 149.736,34.664 151.190,62.200 150.683 C 77.550 150.401,80.419 149.262,83.060 142.400 C 83.939 140.117,84.372 115.667,83.612 111.299 C 82.556 105.234,79.336 101.931,73.414 100.836 C 70.715 100.337,47.225 100.315,44.400 100.809 M194.490 167.629 C 185.752 169.150,184.296 172.357,184.090 190.540 C 183.807 215.577,184.773 216.738,206.200 217.095 C 225.648 217.419,230.029 216.140,232.638 209.377 C 233.949 205.977,233.792 177.467,232.446 174.488 C 231.222 171.780,228.200 169.030,225.461 168.133 C 223.081 167.353,198.384 166.951,194.490 167.629 M312.800 283.986 C 306.597 284.637,303.281 286.956,301.340 292.000 C 300.461 294.283,300.028 318.733,300.788 323.101 C 302.305 331.810,306.068 333.865,321.200 334.249 C 347.998 334.929,350.297 333.210,350.683 312.200 C 351.181 285.118,349.755 283.546,324.800 283.668 C 319.630 283.693,314.230 283.836,312.800 283.986 M42.800 317.823 C 35.491 319.792,34.054 323.148,33.730 339.000 C 33.323 358.922,34.385 362.754,41.200 365.964 L 43.400 367.000 58.600 367.000 C 83.677 367.000,84.208 366.446,83.905 340.566 C 83.708 323.693,82.882 321.143,76.712 318.354 C 74.001 317.129,46.947 316.706,42.800 317.823 "
       id="path0" />
    <path
       fill-rule="evenodd"
       fill="#048cc4"
       stroke="none"
       d="M290.175 7.300 L 289.000 8.600 290.300 7.425 C 291.015 6.779,291.600 6.194,291.600 6.125 C 291.600 5.816,291.270 6.088,290.175 7.300 M392.800 6.125 C 392.800 6.194,393.385 6.779,394.100 7.425 L 395.400 8.600 394.225 7.300 C 393.130 6.088,392.800 5.816,392.800 6.125 M22.500 68.676 C 22.885 68.776,23.515 68.776,23.900 68.676 C 24.285 68.575,23.970 68.493,23.200 68.493 C 22.430 68.493,22.115 68.575,22.500 68.676 M93.700 68.676 C 94.085 68.776,94.715 68.776,95.100 68.676 C 95.485 68.575,95.170 68.493,94.400 68.493 C 93.630 68.493,93.315 68.575,93.700 68.676 M115.693 90.000 C 115.693 90.770,115.775 91.085,115.876 90.700 C 115.976 90.315,115.976 89.685,115.876 89.300 C 115.775 88.915,115.693 89.230,115.693 90.000 M1.693 90.800 C 1.693 91.570,1.775 91.885,1.876 91.500 C 1.976 91.115,1.976 90.485,1.876 90.100 C 1.775 89.715,1.693 90.030,1.693 90.800 M167.200 135.834 C 157.391 137.469,153.249 142.474,151.998 154.200 C 151.495 158.912,151.495 225.488,151.998 230.200 C 153.279 242.207,157.395 247.003,167.800 248.615 C 174.031 249.581,248.608 249.284,252.330 248.279 C 259.785 246.265,263.287 242.555,265.115 234.731 C 266.161 230.254,266.161 154.146,265.115 149.669 C 263.287 141.845,259.786 138.136,252.330 136.121 C 248.794 135.166,172.745 134.909,167.200 135.834 M1.693 160.400 C 1.693 161.170,1.775 161.485,1.876 161.100 C 1.976 160.715,1.976 160.085,1.876 159.700 C 1.775 159.315,1.693 159.630,1.693 160.400 M115.693 161.200 C 115.693 161.970,115.775 162.285,115.876 161.900 C 115.976 161.515,115.976 160.885,115.876 160.500 C 115.775 160.115,115.693 160.430,115.693 161.200 M225.461 168.133 C 228.200 169.030,231.222 171.780,232.446 174.488 C 233.792 177.467,233.949 205.977,232.638 209.377 C 230.029 216.140,225.648 217.419,206.200 217.095 C 184.773 216.738,183.807 215.577,184.090 190.540 C 184.348 167.828,185.075 167.177,210.000 167.359 C 221.311 167.442,223.721 167.562,225.461 168.133 M23.300 182.676 C 23.685 182.776,24.315 182.776,24.700 182.676 C 25.085 182.575,24.770 182.493,24.000 182.493 C 23.230 182.493,22.915 182.575,23.300 182.676 M92.900 182.676 C 93.285 182.776,93.915 182.776,94.300 182.676 C 94.685 182.575,94.370 182.493,93.600 182.493 C 92.830 182.493,92.515 182.575,92.900 182.676 M290.100 251.876 C 290.485 251.976,291.115 251.976,291.500 251.876 C 291.885 251.775,291.570 251.693,290.800 251.693 C 290.030 251.693,289.715 251.775,290.100 251.876 M359.700 251.876 C 360.085 251.976,360.715 251.976,361.100 251.876 C 361.485 251.775,361.170 251.693,360.400 251.693 C 359.630 251.693,359.315 251.775,359.700 251.876 M268.493 273.200 C 268.493 273.970,268.575 274.285,268.676 273.900 C 268.776 273.515,268.776 272.885,268.676 272.500 C 268.575 272.115,268.493 272.430,268.493 273.200 M382.493 274.000 C 382.493 274.770,382.575 275.085,382.676 274.700 C 382.776 274.315,382.776 273.685,382.676 273.300 C 382.575 272.915,382.493 273.230,382.493 274.000 M6.975 290.500 L 5.800 291.800 7.100 290.625 C 7.815 289.979,8.400 289.394,8.400 289.325 C 8.400 289.016,8.070 289.288,6.975 290.500 M382.493 343.600 C 382.493 344.370,382.575 344.685,382.676 344.300 C 382.776 343.915,382.776 343.285,382.676 342.900 C 382.575 342.515,382.493 342.830,382.493 343.600 M268.493 344.400 C 268.493 345.170,268.575 345.485,268.676 345.100 C 268.776 344.715,268.776 344.085,268.676 343.700 C 268.575 343.315,268.493 343.630,268.493 344.400 M289.300 365.876 C 289.685 365.976,290.315 365.976,290.700 365.876 C 291.085 365.775,290.770 365.693,290.000 365.693 C 289.230 365.693,288.915 365.775,289.300 365.876 M360.500 365.876 C 360.885 365.976,361.515 365.976,361.900 365.876 C 362.285 365.775,361.970 365.693,361.200 365.693 C 360.430 365.693,360.115 365.775,360.500 365.876 M6.000 392.925 C 6.000 392.994,6.585 393.579,7.300 394.225 L 8.600 395.400 7.425 394.100 C 6.330 392.888,6.000 392.616,6.000 392.925 "
       id="path1" />
    <path
       fill-rule="evenodd"
       fill="#dc441c"
       stroke="none"
       d="M304.800 2.063 C 293.105 3.155,288.341 6.827,286.079 16.496 C 285.033 20.968,285.044 96.675,286.091 101.162 C 288.389 111.006,292.890 114.438,305.000 115.583 C 310.872 116.138,373.528 116.138,379.400 115.583 C 391.510 114.438,396.011 111.006,398.309 101.162 C 399.356 96.675,399.367 20.968,398.321 16.496 C 396.006 6.600,391.364 3.158,378.800 2.020 C 373.194 1.512,310.314 1.549,304.800 2.063 M354.723 34.006 C 360.931 34.660,363.727 36.449,365.964 41.200 L 367.000 43.400 367.000 58.600 C 367.000 83.416,366.279 84.166,342.400 84.175 C 324.375 84.182,320.793 82.998,318.157 76.161 C 317.036 73.257,317.001 44.944,318.113 41.756 C 319.676 37.280,323.423 34.631,329.030 34.040 C 333.550 33.564,350.315 33.542,354.723 34.006 M21.016 68.841 C 9.400 69.994,4.496 74.018,2.546 84.000 C 1.708 88.286,1.236 152.497,1.976 161.435 C 3.104 175.049,6.775 179.854,17.600 181.886 C 23.404 182.976,94.196 182.976,100.000 181.886 C 110.735 179.871,114.429 175.210,115.615 162.182 C 116.333 154.287,115.899 87.847,115.104 84.000 C 113.196 74.774,109.629 71.206,100.400 69.295 C 96.928 68.576,27.677 68.180,21.016 68.841 M73.414 100.836 C 79.336 101.931,82.556 105.234,83.612 111.299 C 84.372 115.667,83.939 140.117,83.060 142.400 C 80.419 149.262,77.550 150.401,62.200 150.683 C 34.664 151.190,33.210 149.736,33.717 122.200 C 34.017 105.840,35.777 102.316,44.400 100.809 C 47.225 100.315,70.715 100.337,73.414 100.836 M288.542 252.036 C 274.473 253.292,270.046 257.841,268.781 272.341 C 268.060 280.614,268.495 346.522,269.296 350.400 C 271.204 359.626,274.773 363.196,284.000 365.104 C 287.847 365.899,354.287 366.333,362.182 365.615 C 375.210 364.429,379.871 360.735,381.886 350.000 C 382.976 344.196,382.976 273.404,381.886 267.600 C 379.883 256.931,375.067 253.155,362.000 252.010 C 356.542 251.532,293.947 251.554,288.542 252.036 M337.840 283.974 C 349.192 285.073,351.105 289.276,350.683 312.200 C 350.297 333.210,347.998 334.929,321.200 334.249 C 301.546 333.750,300.199 331.988,300.491 307.146 C 300.677 291.229,301.175 289.172,305.532 286.294 C 309.241 283.845,324.896 282.721,337.840 283.974 M19.608 285.641 C 7.558 287.074,3.256 291.955,2.020 305.600 C 1.465 311.721,1.465 372.679,2.020 378.800 C 3.158 391.364,6.600 396.006,16.496 398.321 C 20.968 399.367,96.675 399.356,101.162 398.309 C 111.006 396.011,114.438 391.510,115.583 379.400 C 116.138 373.528,116.138 310.872,115.583 305.000 C 114.447 292.975,111.044 288.456,101.365 286.117 C 98.222 285.358,25.549 284.934,19.608 285.641 M76.712 318.354 C 82.882 321.143,83.708 323.693,83.905 340.566 C 84.208 366.446,83.677 367.000,58.600 367.000 L 43.400 367.000 41.200 365.964 C 34.385 362.754,33.323 358.922,33.730 339.000 C 34.054 323.148,35.491 319.792,42.800 317.823 C 46.947 316.706,74.001 317.129,76.712 318.354 "
       id="path2" />
  </g>
</svg>
